<svg width="121" height="46" viewBox="0 0 121 46" fill="none" xmlns="http://www.w3.org/2000/svg">
<path d="M12.1042 0L11.8453 31.5743L26.7976 0H42.0735L18.5771 45.9027H0V0H12.1042Z" fill="#0C3953"/>
<path d="M79.9846 15.7548C79.4668 18.6507 78.3449 21.2873 76.6188 23.6645C74.8927 25.9986 72.584 27.8572 69.6928 29.2403C66.8448 30.6234 63.5652 31.315 59.8541 31.315H43.4571L36.3774 45.9027L22.2181 45.9027L45.2902 0H65.356C70.2322 0 73.9433 1.10218 76.4893 3.30655C79.0353 5.51092 80.3083 8.53653 80.3083 12.3834C80.3083 13.3343 80.2004 14.4581 79.9846 15.7548ZM60.2425 19.969C63.1768 19.969 64.9029 18.5642 65.4207 15.7548C65.507 15.2361 65.5502 14.8687 65.5502 14.6526C65.5502 12.5779 64.2772 11.5405 61.7312 11.5405H51.5481L47.5026 19.969H60.2425Z" fill="#0C3953"/>
<path d="M46.7501 46C46.2 46 45.6552 45.9406 45.1157 45.8217C44.5871 45.692 44.1071 45.5191 43.6755 45.303C43.244 45.0761 42.8988 44.8276 42.6399 44.5574L43.2224 43.6173C43.4814 43.8875 43.7996 44.1252 44.1772 44.3305C44.5656 44.5358 44.9917 44.6979 45.4556 44.8168C45.9195 44.9248 46.3834 44.9789 46.8472 44.9789C47.5161 44.9789 48.0987 44.8924 48.5949 44.7195C49.1019 44.5466 49.4957 44.2927 49.7762 43.9577C50.0567 43.6227 50.1969 43.2175 50.1969 42.7421C50.1969 42.3639 50.0891 42.0613 49.8733 41.8344C49.6575 41.5967 49.377 41.4076 49.0318 41.2671C48.6866 41.1158 48.3036 40.9807 47.8829 40.8619C47.4622 40.743 47.0414 40.6133 46.6207 40.4729C46.2 40.3324 45.8116 40.1595 45.4556 39.9542C45.1104 39.7489 44.8299 39.4787 44.6141 39.1438C44.4091 38.8088 44.3066 38.3874 44.3066 37.8795C44.3066 37.1663 44.5008 36.5558 44.8892 36.0479C45.2776 35.5292 45.8116 35.1348 46.4912 34.8647C47.1709 34.5946 47.953 34.4595 48.8376 34.4595C49.5065 34.4595 50.1484 34.5405 50.7633 34.7026C51.389 34.8647 51.9176 35.1078 52.3492 35.432L51.8475 36.4045C51.4376 36.102 50.9683 35.875 50.4397 35.7238C49.911 35.5617 49.3555 35.4806 48.7729 35.4806C48.1148 35.4806 47.5377 35.5725 47.0414 35.7562C46.5452 35.9399 46.1568 36.2046 45.8763 36.5504C45.6066 36.8854 45.4718 37.2906 45.4718 37.766C45.4718 38.1442 45.5742 38.4522 45.7792 38.6899C45.995 38.9277 46.2755 39.1222 46.6207 39.2734C46.9767 39.4247 47.3651 39.5652 47.7858 39.6949C48.2065 39.8137 48.6273 39.9434 49.048 40.0839C49.4687 40.2135 49.8517 40.381 50.1969 40.5863C50.5529 40.7808 50.8388 41.0402 51.0546 41.3643C51.2703 41.6777 51.3782 42.0829 51.3782 42.58C51.3782 43.304 51.1786 43.9253 50.7795 44.444C50.3803 44.9518 49.8301 45.3409 49.1289 45.611C48.4385 45.8703 47.6456 46 46.7501 46Z" fill="#242323"/>
<path d="M58.7287 46C57.6067 46 56.652 45.8055 55.8645 45.4165C55.0769 45.0167 54.4728 44.4656 54.0521 43.7632C53.6421 43.05 53.4371 42.2234 53.4371 41.2833C53.4371 40.354 53.5936 39.4787 53.9064 38.6575C54.2301 37.8363 54.6886 37.1123 55.2819 36.4856C55.886 35.848 56.6088 35.351 57.4503 34.9944C58.3026 34.6378 59.2627 34.4595 60.3307 34.4595C61.2369 34.4595 62.0406 34.6 62.7419 34.8809C63.4431 35.1619 63.9825 35.5725 64.3601 36.1128L63.5186 36.8584C63.1626 36.4153 62.7149 36.0857 62.1755 35.8696C61.6361 35.6427 60.9888 35.5292 60.2336 35.5292C59.3814 35.5292 58.6046 35.6805 57.9034 35.9831C57.213 36.2748 56.625 36.6855 56.1396 37.2149C55.6541 37.7444 55.2765 38.3549 55.0068 39.0465C54.7479 39.7273 54.6184 40.4567 54.6184 41.2347C54.6184 41.9587 54.7749 42.6016 55.0877 43.1635C55.4114 43.7146 55.886 44.1468 56.5117 44.4602C57.1375 44.7735 57.9034 44.9302 58.8096 44.9302C59.554 44.9302 60.2282 44.8168 60.8324 44.5899C61.4365 44.3629 61.9651 44.028 62.4182 43.5849L63.1141 44.3791C62.6178 44.9086 61.9867 45.3138 61.2207 45.5948C60.4548 45.8649 59.6241 46 58.7287 46Z" fill="#242323"/>
<path d="M65.0357 45.9027L67.3012 34.5567H71.3791C72.6628 34.5567 73.6553 34.8377 74.3566 35.3996C75.0686 35.9615 75.4246 36.7503 75.4246 37.766C75.4246 38.7277 75.2088 39.549 74.7773 40.2297C74.3566 40.8997 73.7524 41.413 72.9649 41.7696C72.1774 42.1261 71.2442 42.3044 70.1654 42.3044H66.4273L67.0584 41.7533L66.2332 45.9027H65.0357ZM72.7869 45.9027L70.4729 41.7858H71.7513L74.0815 45.9027H72.7869ZM67.0261 41.8506L66.6215 41.2671H70.1816C71.4654 41.2671 72.4579 40.9807 73.1591 40.408C73.8711 39.8353 74.2271 38.9925 74.2271 37.8795C74.2271 37.1339 73.9736 36.5666 73.4666 36.1776C72.9595 35.7886 72.2367 35.5941 71.2982 35.5941H67.7866L68.4016 35.0106L67.0261 41.8506Z" fill="#242323"/>
<path d="M74.9174 45.9027L82.3612 34.5567H83.5424L86.4552 45.9027H85.2578L82.6039 35.2213H83.0894L76.212 45.9027H74.9174ZM77.5551 42.8717L78.1053 41.8992H84.6914L84.8694 42.8717H77.5551Z" fill="#242323"/>
<path d="M88.3291 45.9027L90.5946 34.5567H94.6563C95.9401 34.5567 96.9326 34.8377 97.6338 35.3996C98.3458 35.9615 98.7018 36.7503 98.7018 37.766C98.7018 38.7385 98.486 39.5652 98.0545 40.2459C97.6338 40.9159 97.0297 41.4292 96.2421 41.7858C95.4546 42.1424 94.5214 42.3206 93.4426 42.3206H89.7046L90.3518 41.7533L89.5104 45.9027H88.3291ZM90.3195 41.8506L89.8987 41.2671H93.4588C94.7426 41.2671 95.7351 40.9807 96.4363 40.408C97.1483 39.8353 97.5043 38.9925 97.5043 37.8795C97.5043 37.1339 97.2508 36.5666 96.7438 36.1776C96.2367 35.7886 95.5085 35.5941 94.5592 35.5941H91.0639L91.695 34.9944L90.3195 41.8506Z" fill="#242323"/>
<path d="M102.1 39.63H108.088L107.893 40.6512H101.906L102.1 39.63ZM101.178 44.8654H107.99L107.78 45.9027H99.7861L102.052 34.5567H109.819L109.609 35.5941H103.023L101.178 44.8654Z" fill="#242323"/>
<path d="M110.611 45.9027L112.877 34.5567H116.954C118.238 34.5567 119.231 34.8377 119.932 35.3996C120.644 35.9615 121 36.7503 121 37.766C121 38.7277 120.784 39.549 120.353 40.2297C119.932 40.8997 119.328 41.413 118.54 41.7696C117.753 42.1261 116.82 42.3044 115.741 42.3044H112.003L112.634 41.7533L111.809 45.9027H110.611ZM118.362 45.9027L116.048 41.7858H117.327L119.657 45.9027H118.362ZM112.601 41.8506L112.197 41.2671H115.757C117.041 41.2671 118.033 40.9807 118.735 40.408C119.447 39.8353 119.803 38.9925 119.803 37.8795C119.803 37.1339 119.549 36.5666 119.042 36.1776C118.535 35.7886 117.812 35.5941 116.874 35.5941H113.362L113.977 35.0106L112.601 41.8506Z" fill="#242323"/>
</svg>
